<svg xmlns="http://www.w3.org/2000/svg" viewBox="0 0 1200 630" role="img" aria-label="BoundaryLayer social preview">
  <rect width="1200" height="630" fill="#020617"/>
  <rect x="0" y="0" width="1200" height="6" fill="#1D4ED8"/>
  <rect x="0" y="624" width="1200" height="6" fill="#14B8A6"/>
  <g transform="translate(72,170) scale(2.2)">
    <polygon points="32,4 58,18 58,46 32,60 6,46 6,18" fill="none" stroke="#2563EB" stroke-width="3" stroke-linejoin="round"/>
    <polygon points="32,12 50,22 50,42 32,52 14,42 14,22" fill="none" stroke="#38BDF8" stroke-width="2.5" stroke-linejoin="round"/>
    <polygon points="32,20 42,26 42,38 32,44 22,38 22,26" fill="none" stroke="#14B8A6" stroke-width="2" stroke-linejoin="round"/>
    <rect x="29" y="18" width="6" height="28" fill="#020617"/>
    <line x1="8" y1="32" x2="26" y2="32" stroke="#38BDF8" stroke-width="3.5" stroke-linecap="round"/>
    <line x1="38" y1="32" x2="56" y2="32" stroke="#22C55E" stroke-width="3.5" stroke-linecap="round"/>
    <circle cx="32" cy="32" r="3" fill="#22C55E"/>
  </g>
  <text x="260" y="255" fill="#F8FAFC" font-family="system-ui, -apple-system, Segoe UI, Helvetica, Arial, sans-serif" font-size="72" font-weight="700">BoundaryLayer</text>
  <text x="260" y="320" fill="#38BDF8" font-family="system-ui, -apple-system, Segoe UI, Helvetica, Arial, sans-serif" font-size="28" font-weight="500">Open LLM infrastructure security lab</text>
  <text x="260" y="390" fill="#64748B" font-family="system-ui, -apple-system, Segoe UI, Helvetica, Arial, sans-serif" font-size="24">The model is only the interpreter. The boundary decides the blast radius.</text>
  <line x1="260" y1="430" x2="480" y2="430" stroke="#2563EB" stroke-width="4"/>
  <text x="260" y="470" fill="#64748B" font-family="system-ui, -apple-system, Segoe UI, Helvetica, Arial, sans-serif" font-size="20">github.com/codethor0/boundary-layer</text>
</svg>
